<?xml version="1.0" standalone="no"?>
<!DOCTYPE svg PUBLIC "-//W3C//DTD SVG 1.1//EN" "http://www.w3.org/Graphics/SVG/1.1/DTD/svg11.dtd">
<svg xmlns:xlink="http://www.w3.org/1999/xlink" xmlns="http://www.w3.org/2000/svg" version="1.0" preserveAspectRatio="xMidYMid meet" viewBox="0 52.124999304999996 375.37499999999994 50.24999933" zoomAndPan="magnify" style="max-height: 500px" width="375.375" height="50.25"><defs><filter id="619dab13fd" height="100%" width="100%" y="0%" x="0%"><feColorMatrix color-interpolation-filters="sRGB" values="0 0 0 0 1 0 0 0 0 1 0 0 0 0 1 0 0 0 1 0"/></filter><g/><mask id="dbecb1bfb0"><g filter="url(#619dab13fd)"><rect fill-opacity="0.75" height="179.999997" y="-15" fill="#000000" width="450" x="-37.5"/></g></mask><clipPath id="54acb0d1ca"><path clip-rule="nonzero" d="M 0.53125 0.527344 L 31 0.527344 L 31 41.679688 L 0.53125 41.679688 Z M 0.53125 0.527344"/></clipPath><clipPath id="45a29d2ecf"><path clip-rule="nonzero" d="M 12 0.527344 L 41.679688 0.527344 L 41.679688 41.679688 L 12 41.679688 Z M 12 0.527344"/></clipPath><clipPath id="0b2d81059a"><rect height="42" y="0" width="42" x="0"/></clipPath><mask id="6eb96730aa"><g filter="url(#619dab13fd)"><rect fill-opacity="0.75" height="179.999997" y="-15" fill="#000000" width="450" x="-37.5"/></g></mask><clipPath id="df5c297b4c"><path clip-rule="nonzero" d="M 0.121094 0.078125 L 287.640625 0.078125 L 287.640625 39.921875 L 0.121094 39.921875 Z M 0.121094 0.078125"/></clipPath><clipPath id="d33414e3ac"><rect height="40" y="0" width="288" x="0"/></clipPath><clipPath id="21130ef59d"><rect height="40" y="0" width="288" x="0"/></clipPath></defs><g mask="url(#dbecb1bfb0)"><g transform="matrix(1, 0, 0, 1, 20, 56)"><g clip-path="url(#0b2d81059a)"><g clip-path="url(#54acb0d1ca)"><path fill-rule="nonzero" fill-opacity="1" d="M 21.320312 9.179688 C 22.980469 10.839844 23.808594 12.867188 23.808594 15.261719 L 23.808594 26.855469 C 23.808594 28.921875 24.84375 29.957031 26.914062 29.957031 C 28.980469 29.957031 30.015625 28.921875 30.015625 26.855469 L 30.015625 15.261719 C 30.015625 11.207031 28.570312 7.738281 25.6875 4.851562 C 22.800781 1.96875 19.332031 0.527344 15.277344 0.527344 L 3.6875 0.527344 C 1.589844 0.527344 0.542969 1.546875 0.542969 3.585938 L 0.542969 38.488281 C 0.542969 40.527344 1.589844 41.546875 3.6875 41.546875 C 5.753906 41.546875 6.789062 40.527344 6.789062 38.488281 L 6.789062 6.6875 L 15.277344 6.6875 C 17.644531 6.6875 19.660156 7.519531 21.320312 9.179688 Z M 21.320312 9.179688" fill="#ffffff"/></g><g clip-path="url(#45a29d2ecf)"><path fill-rule="nonzero" fill-opacity="1" d="M 38.546875 0.527344 C 36.476562 0.527344 35.441406 1.546875 35.441406 3.585938 L 35.441406 35.425781 L 26.914062 35.425781 C 24.597656 35.425781 22.597656 34.59375 20.910156 32.933594 C 19.25 31.277344 18.421875 29.25 18.421875 26.855469 L 18.421875 15.261719 C 18.421875 13.191406 17.375 12.160156 15.277344 12.160156 C 13.210938 12.160156 12.175781 13.191406 12.175781 15.261719 L 12.175781 26.855469 C 12.175781 30.882812 13.617188 34.335938 16.503906 37.222656 C 19.386719 40.105469 22.855469 41.546875 26.910156 41.546875 L 38.542969 41.546875 C 40.613281 41.546875 41.648438 40.527344 41.648438 38.488281 L 41.648438 3.585938 C 41.648438 1.546875 40.613281 0.527344 38.546875 0.527344 Z M 38.546875 0.527344" fill="#ffffff"/></g></g></g></g><g mask="url(#6eb96730aa)"><g transform="matrix(1, 0, 0, 1, 75, 58)"><g clip-path="url(#21130ef59d)"><g clip-path="url(#df5c297b4c)"><g transform="matrix(1, 0, 0, 1, -0.000000000000014211, -0.000000000000007105)"><g clip-path="url(#d33414e3ac)"><g fill-opacity="1" fill="#ffffff"><g transform="translate(0.446063, 31.075948)"><g><path d="M 23.5 -22.6875 L 23.5 0 L 19.1875 0 L 7.875 -13.765625 L 7.875 0 L 2.6875 0 L 2.6875 -22.6875 L 7.03125 -22.6875 L 18.3125 -8.90625 L 18.3125 -22.6875 Z M 23.5 -22.6875"/></g></g></g><g fill-opacity="1" fill="#ffffff"><g transform="translate(30.458013, 31.075948)"><g><path d="M 13.671875 0.390625 C 11.316406 0.390625 9.191406 -0.113281 7.296875 -1.125 C 5.410156 -2.144531 3.929688 -3.546875 2.859375 -5.328125 C 1.796875 -7.109375 1.265625 -9.113281 1.265625 -11.34375 C 1.265625 -13.570312 1.796875 -15.578125 2.859375 -17.359375 C 3.929688 -19.140625 5.410156 -20.535156 7.296875 -21.546875 C 9.191406 -22.566406 11.316406 -23.078125 13.671875 -23.078125 C 16.023438 -23.078125 18.140625 -22.566406 20.015625 -21.546875 C 21.898438 -20.535156 23.382812 -19.140625 24.46875 -17.359375 C 25.550781 -15.578125 26.09375 -13.570312 26.09375 -11.34375 C 26.09375 -9.113281 25.550781 -7.109375 24.46875 -5.328125 C 23.382812 -3.546875 21.898438 -2.144531 20.015625 -1.125 C 18.140625 -0.113281 16.023438 0.390625 13.671875 0.390625 Z M 13.671875 -4.078125 C 15.015625 -4.078125 16.222656 -4.382812 17.296875 -5 C 18.378906 -5.625 19.226562 -6.484375 19.84375 -7.578125 C 20.457031 -8.679688 20.765625 -9.9375 20.765625 -11.34375 C 20.765625 -12.75 20.457031 -14 19.84375 -15.09375 C 19.226562 -16.195312 18.378906 -17.054688 17.296875 -17.671875 C 16.222656 -18.285156 15.015625 -18.59375 13.671875 -18.59375 C 12.335938 -18.59375 11.128906 -18.285156 10.046875 -17.671875 C 8.960938 -17.054688 8.113281 -16.195312 7.5 -15.09375 C 6.882812 -14 6.578125 -12.75 6.578125 -11.34375 C 6.578125 -9.9375 6.882812 -8.679688 7.5 -7.578125 C 8.113281 -6.484375 8.960938 -5.625 10.046875 -5 C 11.128906 -4.382812 12.335938 -4.078125 13.671875 -4.078125 Z M 13.671875 -4.078125"/></g></g></g><g fill-opacity="1" fill="#ffffff"><g transform="translate(61.636729, 31.075948)"><g><path d="M 24.5 -22.6875 L 14.6875 0 L 9.5 0 L -0.296875 -22.6875 L 5.375 -22.6875 L 12.28125 -6.484375 L 19.28125 -22.6875 Z M 24.5 -22.6875"/></g></g></g><g fill-opacity="1" fill="#ffffff"><g transform="translate(89.639248, 31.075948)"><g><path d="M 20.25 -4.21875 L 20.25 0 L 2.6875 0 L 2.6875 -22.6875 L 19.828125 -22.6875 L 19.828125 -18.46875 L 7.90625 -18.46875 L 7.90625 -13.546875 L 18.4375 -13.546875 L 18.4375 -9.46875 L 7.90625 -9.46875 L 7.90625 -4.21875 Z M 20.25 -4.21875"/></g></g></g><g fill-opacity="1" fill="#ffffff"><g transform="translate(115.211004, 31.075948)"><g><path d="M 2.6875 -22.6875 L 7.9375 -22.6875 L 7.9375 -4.28125 L 19.3125 -4.28125 L 19.3125 0 L 2.6875 0 Z M 2.6875 -22.6875"/></g></g></g><g fill-opacity="1" fill="#ffffff"><g transform="translate(138.611274, 31.075948)"><g><path d="M 2.6875 -22.6875 L 7.9375 -22.6875 L 7.9375 0 L 2.6875 0 Z M 2.6875 -22.6875"/></g></g></g><g fill-opacity="1" fill="#ffffff"><g transform="translate(153.066322, 31.075948)"><g><path d="M 17.625 -4.859375 L 7.09375 -4.859375 L 5.09375 0 L -0.296875 0 L 9.8125 -22.6875 L 15 -22.6875 L 25.140625 0 L 19.640625 0 Z M 15.96875 -8.84375 L 12.375 -17.53125 L 8.78125 -8.84375 Z M 15.96875 -8.84375"/></g></g></g><g fill-opacity="1" fill="#ffffff"><g transform="translate(181.725476, 31.075948)"><g><path d="M 8.109375 -20.609375 L 0.125 -20.609375 L 0.125 -22.6875 L 18.46875 -22.6875 L 18.46875 -20.609375 L 10.5 -20.609375 L 10.5 0 L 8.109375 0 Z M 8.109375 -20.609375"/></g></g></g><g fill-opacity="1" fill="#ffffff"><g transform="translate(204.153436, 31.075948)"><g><path d="M 19.734375 -2.078125 L 19.734375 0 L 3.6875 0 L 3.6875 -22.6875 L 19.25 -22.6875 L 19.25 -20.609375 L 6.09375 -20.609375 L 6.09375 -12.546875 L 17.828125 -12.546875 L 17.828125 -10.5 L 6.09375 -10.5 L 6.09375 -2.078125 Z M 19.734375 -2.078125"/></g></g></g><g fill-opacity="1" fill="#ffffff"><g transform="translate(229.66037, 31.075948)"><g><path d="M 13.546875 0.1875 C 11.296875 0.1875 9.269531 -0.304688 7.46875 -1.296875 C 5.664062 -2.285156 4.25 -3.660156 3.21875 -5.421875 C 2.195312 -7.179688 1.6875 -9.15625 1.6875 -11.34375 C 1.6875 -13.519531 2.195312 -15.488281 3.21875 -17.25 C 4.25 -19.007812 5.671875 -20.382812 7.484375 -21.375 C 9.296875 -22.375 11.328125 -22.875 13.578125 -22.875 C 15.265625 -22.875 16.820312 -22.59375 18.25 -22.03125 C 19.675781 -21.46875 20.882812 -20.648438 21.875 -19.578125 L 20.34375 -18.046875 C 18.570312 -19.835938 16.335938 -20.734375 13.640625 -20.734375 C 11.847656 -20.734375 10.21875 -20.320312 8.75 -19.5 C 7.28125 -18.6875 6.128906 -17.566406 5.296875 -16.140625 C 4.460938 -14.710938 4.046875 -13.113281 4.046875 -11.34375 C 4.046875 -9.570312 4.460938 -7.972656 5.296875 -6.546875 C 6.128906 -5.117188 7.28125 -3.992188 8.75 -3.171875 C 10.21875 -2.347656 11.847656 -1.9375 13.640625 -1.9375 C 16.359375 -1.9375 18.59375 -2.847656 20.34375 -4.671875 L 21.875 -3.140625 C 20.882812 -2.054688 19.671875 -1.226562 18.234375 -0.65625 C 16.796875 -0.09375 15.234375 0.1875 13.546875 0.1875 Z M 13.546875 0.1875"/></g></g></g><g fill-opacity="1" fill="#ffffff"><g transform="translate(256.787813, 31.075948)"><g><path d="M 22.65625 -22.6875 L 22.65625 0 L 20.28125 0 L 20.28125 -10.46875 L 6.09375 -10.46875 L 6.09375 0 L 3.6875 0 L 3.6875 -22.6875 L 6.09375 -22.6875 L 6.09375 -12.578125 L 20.28125 -12.578125 L 20.28125 -22.6875 Z M 22.65625 -22.6875"/></g></g></g></g></g></g></g></g></g></svg>